<svg width="64" height="90" viewBox="0 0 64 90" fill="none" xmlns="http://www.w3.org/2000/svg">
<path d="M45.0615 2.255C45.7997 3.16765 46.176 4.39906 46.9288 6.86188L63.3755 60.6643C57.1979 57.4718 50.5674 55.2363 43.7128 54.0349L33.0043 17.9986C32.9188 17.7112 32.7423 17.459 32.501 17.2798C32.2597 17.1006 31.9666 17.0041 31.6656 17.0045C31.3646 17.005 31.0719 17.1025 30.8311 17.2824C30.5904 17.4624 30.4146 17.7151 30.3301 18.0028L19.7514 54.0169C12.8658 55.2126 6.20473 57.4515 0 60.6559L16.5271 6.84931C17.2824 4.39092 17.6602 3.16148 18.3985 2.25056C19.0502 1.44643 19.8979 0.821933 20.8607 0.436602C21.9512 0 23.2422 0 25.824 0H37.6285C40.2137 0 41.5062 0 42.598 0.437342C43.5616 0.823607 44.4099 1.44941 45.0615 2.255Z" fill="white"/>
<path d="M47.0296 63.2248C44.3183 65.5332 38.9066 67.1078 32.673 67.1078C25.0224 67.1078 18.6099 64.736 16.9084 61.5461C16.2999 63.3742 16.1635 65.4667 16.1635 66.8031C16.1635 66.8031 15.7627 73.3665 20.3468 77.9314C20.3468 75.5611 22.2765 73.6394 24.6568 73.6394C28.7366 73.6394 28.7316 77.184 28.7282 80.0597L28.7279 80.3163C28.7279 84.6811 31.4065 88.423 35.2165 90C34.63 88.798 34.3263 87.4789 34.3282 86.1426C34.3282 81.9797 36.7823 80.4297 39.6347 78.6284C41.9041 77.195 44.4257 75.6025 46.1633 72.408C47.0992 70.687 47.5879 68.7602 47.5848 66.8031C47.5848 65.5557 47.3903 64.3534 47.0296 63.2248Z" fill="#FF5D01"/>
</svg>
