<svg width="95" height="90" viewBox="0 0 95 90" fill="none" xmlns="http://www.w3.org/2000/svg">
<path d="M65.6875 62.8553C69.1859 62.4931 71.84 59.4772 71.7192 55.8577C71.5989 52.2386 68.5826 49.3431 64.9635 49.3431H64.7224C60.9822 49.4638 58.0871 52.6004 58.2078 56.3403C58.3285 58.15 59.0521 59.7183 60.1379 60.8041C56.0362 68.8874 49.763 74.7988 40.3532 79.7451C33.9593 83.1232 27.3243 84.3297 20.6893 83.4854C15.2605 82.7614 11.0381 80.3488 8.38364 76.3671C4.52344 70.4557 4.16164 64.0614 7.41896 57.6675C9.71123 53.0829 13.33 49.7049 15.6223 48.0159C15.1397 46.4476 14.4158 43.7935 14.054 41.8634C-3.43878 54.5309 -1.62904 71.6622 3.67911 79.7451C7.66004 85.7776 15.743 89.5175 24.6702 89.5175C27.0829 89.5175 29.4955 89.276 31.9085 88.6731C47.3504 85.6569 59.0525 76.4878 65.6875 62.8553ZM86.9201 47.8955C77.7513 37.1581 64.2399 31.2467 48.798 31.2467H46.8679C45.7821 29.0752 43.4898 27.6272 40.9565 27.6272H40.715C36.9756 27.748 34.0804 30.8846 34.2008 34.6248C34.3215 38.2439 37.3374 41.1394 40.9565 41.1394H41.1976C43.8516 41.0187 46.1439 39.3297 47.109 37.0374H49.2805C58.4492 37.0374 67.135 39.6915 74.9769 44.8793C81.0087 48.8606 85.3518 54.0484 87.7644 60.3216C89.8152 65.3886 89.6945 70.335 87.5229 74.5577C84.1453 80.9516 78.4753 84.4504 70.9956 84.4504C66.17 84.4504 61.5858 83.0025 59.1728 81.9167C57.846 83.1232 55.433 85.0533 53.744 86.2602C58.9318 88.6728 64.2399 90 69.3066 90C80.8879 90 89.4534 83.6057 92.7107 77.2118C96.2091 70.2143 95.9677 58.15 86.9201 47.8955ZM25.6353 64.9057C25.756 68.5252 28.7719 71.4204 32.391 71.4204H32.6325C36.3723 71.3 39.2675 68.163 39.1467 64.4232C39.0264 60.8037 36.0101 57.9086 32.391 57.9086H32.1499C31.9085 57.9086 31.5463 57.9086 31.3056 58.0289C26.3593 49.8252 24.3084 40.898 25.0324 31.2464C25.5146 24.0078 27.9276 17.7342 32.1499 12.5464C35.6483 8.08257 42.4041 5.91102 46.9886 5.79067C59.7761 5.54922 65.2046 21.474 65.5667 27.8683C67.135 28.2301 69.7891 29.0748 71.5989 29.6781C70.1509 10.1341 58.0871 0 46.5061 0C35.6483 0 25.6353 7.84187 21.654 19.4236C16.1048 34.8659 19.7239 49.7049 26.4796 61.4073C25.8767 62.2517 25.5146 63.5785 25.6353 64.9057Z" fill="#764ABC"/>
</svg>
